# xmcd
#
# Track frame offsets:
#	150
#	18905
#	33949
#	49667
#	69098
#	87484
#	105557
#	125276
#	140373
#	157139
#	173592
#	188350
#	207671
#
# Disc length: 2981 seconds
#
# Revision: 0
# Processed by: cddbd v1.5.2PL0 Copyright (c) Steve Scherf et al.
# Submitted via: EasyCDDAExtractor 16.0.6.1
#
DISCID=a30ba30d
DTITLE=Brantley Gilbert - A Modern Day Prodigal Son
DYEAR=2011
DGENRE=Country
TTITLE0=Freshman Year
TTITLE1=What's Left of a Small Town
TTITLE2=G.R.I.T.S.
TTITLE3=Whenever We're Alone
TTITLE4=The Best of Me
TTITLE5=My Kinda Party
TTITLE6=A Modern Day Prodigal Son
TTITLE7=Live it Up
TTITLE8=Friday Night
TTITLE9=Indiana's Angel
TTITLE10=Rock This Town
TTITLE11=Picture on the Dashboard
TTITLE12=Play Me That Song
EXTD=
EXTT0=
EXTT1=
EXTT2=
EXTT3=
EXTT4=
EXTT5=
EXTT6=
EXTT7=
EXTT8=
EXTT9=
EXTT10=
EXTT11=
EXTT12=
PLAYORDER=
